<svg xmlns="http://www.w3.org/2000/svg" viewBox="0 0 100 100"><g fill="#c5ded7"><path d="M89.76 49.71C88.92 58.22 77.11 66.74 69.06 72.3C61.01 77.86 50.84 84.07 41.44 83.06C32.04 82.05 17.26 74.47 12.65 66.24C8.03 58.01 8.96 42.05 13.75 33.67C18.53 25.29 31.27 18.01 41.34 15.94C51.4 13.87 66.05 15.61 74.12 21.24C82.19 26.87 90.6 41.2 89.76 49.71Z"/></g><g fill="#06120f"><path d="M40.84 49.62C40.3 56.51 40.06 56.92 36.57 56.65C33.09 56.38 32.9 55.93 33.44 49.04C33.98 42.14 34.23 41.73 37.71 42C41.2 42.28 41.38 42.72 40.84 49.62Z"/><path d="M64.47 50.16C63.4 58.4 63.06 58.87 58.78 58.31C54.5 57.75 54.3 57.21 55.38 48.97C56.46 40.73 56.79 40.26 61.07 40.82C65.35 41.38 65.55 41.92 64.47 50.16Z"/></g></svg>